<?xml version="1.0" encoding="iso-8859-1"?>
<!-- Uploaded to: SVG Repo, www.svgrepo.com, Generator: SVG Repo Mixer Tools -->
<svg fill="#000000" height="800px" width="800px" version="1.1" id="Capa_1" xmlns="http://www.w3.org/2000/svg" xmlns:xlink="http://www.w3.org/1999/xlink" 
	 viewBox="0 0 250.696 250.696" xml:space="preserve">
<g>
	<path d="M215.626,15.048l-3.807-3.648l-3.807,3.648c-1.432,1.373-35.07,33.954-35.07,62.815c0,21.437,17.44,38.877,38.877,38.877
		s38.877-17.44,38.877-38.877C250.696,49.002,217.058,16.421,215.626,15.048z"/>
	<path d="M119.533,104.296c-61.816,0-110.149,56.389-112.177,58.789L0,171.796l7.356,8.711c2.027,2.4,50.36,58.789,112.177,58.789
		s110.149-56.389,112.177-58.789l7.356-8.711l-7.356-8.711C229.683,160.685,181.35,104.296,119.533,104.296z M143.342,139.887
		c7.863,0,14.236,6.374,14.236,14.237c0,7.862-6.374,14.236-14.236,14.236c-7.862,0-14.236-6.374-14.236-14.236
		C129.106,146.261,135.48,139.887,143.342,139.887z M119.533,212.296c-36.177,0-68.466-26.389-83.16-40.52
		c6.293-6.073,15.824-14.395,27.522-21.915c0.206,30.045,24.708,54.426,54.805,54.426c30.225,0,54.813-24.586,54.813-54.806
		c0-0.202-0.009-0.404-0.011-0.605c12.446,7.787,22.595,16.596,29.191,22.939C188.042,185.957,155.869,212.296,119.533,212.296z"/>
</g>
</svg>