<svg class="icon" viewBox="0 0 1024 1024" version="1.1" xmlns="http://www.w3.org/2000/svg" p-id="11737" height="128" width="128"><path d="M1002.9 210.7L805.4 13.2c-17.5-17.5-46-17.5-63.5 0s-17.5 46 0 63.5l0.8 0.8L577.1 243l-65.9-65.9-1.5 1.5-66.6-66.6c-17.5-17.5-46-17.5-63.5 0s-17.5 46 0 63.5l66.6 66.6L111.4 577c-70.1 70.1-70.1 183.9 0 254l13 13L21.1 947.3c-17.5 17.5-17.5 46 0 63.5 8.8 8.8 20.3 13.2 31.7 13.2s23-4.4 31.7-13.2L188 907.4c34.9 34.2 80.2 51.5 125.7 51.5 46 0 91.9-17.5 127-52.6l334.9-334.9 65.1 65.1c8.8 8.8 20.3 13.2 31.7 13.2 11.5 0 23-4.4 31.7-13.2 17.5-17.5 17.5-46 0-63.5L839 507.9l1.5-1.5-65.9-65.9 165.7-165.7c8.6 8.2 19.7 12.5 30.8 12.5 11.5 0 23-4.4 31.7-13.2 17.7-17.4 17.7-45.8 0.1-63.4zM377.2 842.8c-17 17-39.5 26.3-63.5 26.3s-46.5-9.3-63.5-26.3l-75.3-75.3c-17-17-26.3-39.5-26.3-63.5s9.3-46.5 26.3-63.5l82.7-82.7 53.3 53.3c8.8 8.8 20.3 13.2 31.7 13.2 11.5 0 23-4.4 31.7-13.2 17.5-17.5 17.5-46 0-63.5L321 494.4l52.8-52.8L493 560.7c8.8 8.8 20.3 13.2 31.7 13.2 11.5 0 23-4.4 31.7-13.2 17.5-17.5 17.5-46 0-63.5L437.3 378.1l72.5-72.5 2.4 2.4-0.9 0.9 197.6 197.6 0.9-0.9 2.4 2.4-335 334.8z m334-465.7l-70.6-70.6 134.1-134.1 70.6 70.6-134.1 134.1z" p-id="11738"></path></svg>