<svg class="icon" viewBox="0 0 1024 1024" version="1.1" xmlns="http://www.w3.org/2000/svg" p-id="38796" height="128" width="128"><path d="M184.37 622.37c0-58.91 29.52-134.62 82.22-225.07 20.99-35.98 45.36-73.71 72.45-112.59 33.09-47.28 67.75-93.43 103.95-138.37a2479.68 2479.68 0 0 1 43.88-53.17l3.51-4.09 21.6-24.87 21.67 24.87 3.5 4.1c2.77 3.24 6 7.06 9.67 11.37a2913.27 2913.27 0 0 1 34.27 41.79c36.17 44.96 70.84 91.1 103.94 138.37 27.04 38.87 51.41 76.61 72.4 112.59 52.7 90.45 82.22 166.16 82.22 225.07 0 186.19-146.52 337.43-327.66 337.43-181.09 0-327.62-151.24-327.62-337.43m303.28-439.71a2469.713 2469.713 0 0 0-101.56 135.3c-26.24 37.62-49.77 74.05-69.96 108.66-47.9 82.13-74.31 149.93-74.31 195.75 0 154.61 121.13 279.6 270.14 279.6 149.07 0 270.21-124.99 270.21-279.6 0-45.81-26.42-113.62-74.32-195.75-20.18-34.61-43.71-71.04-69.89-108.66a2530.336 2530.336 0 0 0-101.57-135.31c-8.1-10-16.24-19.96-24.43-29.88-7.57 9.22-15.71 19.18-24.31 29.89M512 859.34c-126.22 0-228.59-103.31-228.59-230.87 0-127.51 118.82-62.96 228.59 0 110.27 63.24 228.59-127.51 228.59 0-0.01 127.55-102.37 230.87-228.59 230.87" p-id="38797"></path></svg>