<svg class="icon" viewBox="0 0 1024 1024" version="1.1" xmlns="http://www.w3.org/2000/svg" p-id="16123" height="128" width="128"><path d="M389.052 387.209L104.107 721.067l-1.195 1.45c-37.751 49.562-11.81 121.942 49.067 135.51 79.735 17.783 188.33 28.757 330.069 29.388l12.97 0.035c153.481 0 302.337-12.68 377.413-29.423 60.894-13.568 86.87-85.948 49.084-135.51l-1.195-1.45L635.41 387.19l-1.844-1.98c-67.02-67.02-175.684-67.02-242.705 0l-1.826 1.98z m195.464 45.533L867.5 764.331l-0.256-0.41c7.697 10.104 2.423 24.798-9.643 27.477l-9.49 2.014C775.51 807.97 637.44 819.2 495.037 819.2c-143.326 0-251.205-10.598-328.192-27.767l-1.929-0.564c-10.035-3.532-14.438-15.803-8.84-25.207l0.87-1.314 282.982-331.589-0.785 0.751a103.356 103.356 0 0 1 143.02-3.02l2.354 2.27zM231.253 383.095a42.274 42.274 0 0 1-1.058-7.543c-1.075-21.743 14.473-40.448 30.379-47.667 16.52-7.51 33.485-3.618 45.397 10.342 8.482 9.882 11.81 22.955 9.25 35.84-3.976 19.832-20.787 34.355-35.328 38.486a36.727 36.727 0 0 1-26.01-1.963 40.55 40.55 0 0 1-22.63-27.495m348.57-117.76a44.032 44.032 0 0 1-5.052-6.126c-12.783-18.774-9.113-43.862 1.127-58.932 10.598-15.616 27.784-21.401 45.994-15.48a43.947 43.947 0 0 1 27.7 26.847c7.236 19.814 0.187 41.881-10.514 53.453a38.195 38.195 0 0 1-24.183 12.39 42.308 42.308 0 0 1-35.072-12.152M546.03 161.826a51.06 51.06 0 0 0 5.734-6.878c14.507-21.111 10.496-49.425-0.955-66.474-11.862-17.681-31.232-24.303-51.798-17.716a49.681 49.681 0 0 0-31.402 30.14c-8.26 22.29-0.427 47.207 11.57 60.33 7.425 8.056 16.811 12.937 27.222 14.115a47.701 47.701 0 0 0 39.629-13.517m-149.3 148.275a34.338 34.338 0 0 1-4.027-4.915c-10.24-15.019-7.287-35.072 0.887-47.12 8.466-12.51 22.238-17.136 36.796-12.391a35.157 35.157 0 0 1 22.17 21.487c5.785 15.837 0.136 33.484-8.414 42.752a30.583 30.583 0 0 1-19.354 9.898 33.826 33.826 0 0 1-28.057-9.728M409.6 580.267a34.133 34.133 0 0 1 27.767 53.982l-0.102 0.153a34.304 34.304 0 0 1-2.338 2.884L329.079 768h-87.654l140.408-173.431a34.082 34.082 0 0 1 27.767-14.302z" p-id="16124"></path></svg>