<svg version="1.1" id="Layer_1" xmlns="http://www.w3.org/2000/svg" xmlns:xlink="http://www.w3.org/1999/xlink" x="0px" y="0px"
	 width="100%" viewBox="0 0 224 224" enable-background="new 0 0 224 224" xml:space="preserve">
<path fill="#000000" opacity="1.000000" stroke="none" 
	d="
M119.233070,180.417419 
	C92.474144,187.377121 66.499962,186.679764 41.058662,176.352692 
	C36.568127,174.529892 32.336128,172.169113 28.603060,169.057831 
	C22.153063,163.682220 18.191185,157.204010 18.695023,148.320679 
	C19.099857,141.182892 19.263145,133.961624 18.657980,126.851944 
	C17.636612,114.852554 23.842825,107.225975 33.161407,101.555450 
	C44.889179,94.418915 58.008865,91.315659 71.514099,89.796280 
	C76.297737,89.258102 81.129929,89.113678 85.945084,88.911957 
	C87.909233,88.829666 89.349434,88.338181 90.505661,86.537041 
	C96.094612,77.830688 103.113106,70.219444 109.525238,62.145401 
	C117.352196,52.289803 128.131195,51.279289 139.033890,54.332958 
	C172.692032,63.760059 198.522339,83.557419 214.806595,114.767334 
	C221.180176,126.982735 221.985855,139.228455 211.079163,150.134933 
	C207.102463,154.111572 203.591568,158.670395 200.471786,163.364746 
	C192.612610,175.190491 181.358398,176.687454 168.757843,174.386124 
	C162.175217,173.183899 155.928375,170.832764 149.903778,167.954407 
	C147.802856,166.950668 146.036133,166.378357 144.010788,168.190170 
	C137.006668,174.455887 128.388260,177.546753 119.233070,180.417419 
M97.233536,98.329765 
	C97.152832,100.885208 97.977203,103.252586 98.826340,105.595215 
	C102.104706,114.639740 107.227242,122.610291 113.657387,129.666245 
	C129.778473,147.356262 148.453903,161.191299 172.417389,166.125381 
	C183.584351,168.424637 189.977783,165.191620 195.845108,153.706314 
	C153.411453,145.112701 123.593948,121.081009 106.135231,80.925415 
	C102.129410,85.685928 96.679756,89.852432 97.233536,98.329765 
M136.841415,161.647202 
	C134.324631,158.682541 130.606949,157.225632 127.860909,154.609940 
	C124.329056,151.245712 120.684334,150.892166 115.992416,152.011993 
	C98.151855,156.270020 80.139954,156.668365 62.030998,153.485641 
	C49.810890,151.337891 38.250198,147.611694 28.027479,139.922318 
	C25.669874,153.340958 29.052345,160.578827 40.159309,166.365936 
	C43.103256,167.899857 46.158054,169.307007 49.300003,170.360748 
	C67.514526,176.469421 86.205849,177.399231 105.002983,174.281647 
	C116.287674,172.410034 127.662773,170.127502 136.841415,161.647202 
M187.992584,104.602448 
	C170.669342,106.506119 153.346115,108.409790 136.022873,110.313461 
	C135.962051,110.820580 135.901230,111.327698 135.840408,111.834816 
	C146.758011,122.307945 158.590851,131.490417 172.498291,137.904037 
	C181.227707,141.929733 190.105438,144.944122 199.896118,143.696228 
	C207.250702,142.758820 211.493835,136.735718 210.253189,129.494370 
	C209.198486,123.338310 206.618988,117.835075 203.905579,112.284233 
	C200.732437,105.792946 196.349121,102.389900 187.992584,104.602448 
M117.353096,85.039223 
	C119.267487,88.536873 121.412788,91.930611 123.044022,95.555664 
	C125.723488,101.510193 130.138870,102.375481 136.102951,101.494019 
	C148.600128,99.646996 161.190079,98.491585 173.789520,97.439163 
	C178.920212,97.010590 184.322632,97.445770 190.225830,94.825806 
	C173.516769,78.753525 156.051849,65.562767 133.305603,62.529831 
	C117.795143,60.461697 112.511032,67.684021 116.623184,82.875587 
	C116.753288,83.356247 116.952240,83.818268 117.353096,85.039223 
M34.674786,111.150383 
	C24.766184,120.219116 25.225517,127.125145 36.281502,134.750488 
	C41.816090,138.567719 47.970718,141.012161 54.365456,142.989578 
	C56.908691,143.776016 58.813366,143.394577 60.669853,141.509933 
	C69.661316,132.381958 78.743034,123.342766 87.719604,114.200287 
	C90.537735,111.330070 90.261826,101.998199 87.482323,99.161575 
	C86.710518,98.373909 85.744179,98.198242 84.747223,98.199219 
	C67.197258,98.216393 50.268494,100.710526 34.674786,111.150383 
M105.621872,133.842941 
	C101.554558,129.718628 99.034767,124.400002 95.402817,119.759651 
	C86.856834,128.520340 78.680824,136.901749 70.208794,145.586624 
	C84.821136,148.003555 99.043709,146.950150 114.056816,143.496048 
	C110.886650,139.867599 108.489281,137.123672 105.621872,133.842941 
z"/>
</svg>